<?xml version="1.0" standalone="no"?>
<!DOCTYPE svg PUBLIC "-//W3C//DTD SVG 20010904//EN"
 "http://www.w3.org/TR/2001/REC-SVG-20010904/DTD/svg10.dtd">
<svg version="1.0" xmlns="http://www.w3.org/2000/svg"
 width="1280.000000pt" height="1019.000000pt" viewBox="0 0 1280.000000 1019.000000"
 preserveAspectRatio="xMidYMid meet">
<metadata>
Created by potrace 1.15, written by Peter Selinger 2001-2017
</metadata>
<g transform="translate(0.000000,1019.000000) scale(0.100000,-0.100000)"
fill="#000000" stroke="none">
<path d="M5764 9900 c-271 -26 -594 -134 -813 -272 -172 -108 -363 -288 -480
-453 -208 -295 -406 -879 -811 -2399 -49 -187 -90 -342 -90 -344 0 -10 -1536
79 -1590 92 -8 2 17 4 55 5 63 1 68 3 51 16 -17 13 -9 14 70 17 58 2 -8 8
-192 17 l-281 14 -51 -28 c-29 -15 -58 -35 -66 -44 -8 -9 -24 -74 -35 -146
-82 -509 -221 -1057 -531 -2095 -29 -96 -77 -260 -107 -365 -30 -104 -58 -203
-63 -220 -5 -16 -14 -48 -20 -70 -6 -22 -15 -53 -20 -70 -273 -963 -403 -1647
-417 -2205 -5 -208 -4 -231 16 -310 29 -114 65 -184 131 -250 66 -66 193 -134
301 -160 66 -16 69 -19 34 -19 -52 -1 -105 -46 -105 -89 0 -24 7 -32 38 -45
86 -38 131 -39 1822 -43 2600 -7 9183 11 9250 26 30 6 67 21 82 32 48 34 41
47 -77 146 -17 14 -41 22 -68 23 -23 1 19 7 93 15 208 20 280 32 337 59 173
79 226 167 240 395 6 112 1 147 -73 540 -119 623 -257 1202 -589 2475 -222
851 -317 1235 -450 1825 -67 293 -122 494 -152 554 -30 59 -52 76 -103 76
-101 0 -522 -60 -905 -129 -150 -28 -452 -51 -651 -51 l-61 0 -106 218 c-113
233 -227 481 -449 982 -239 539 -361 777 -525 1030 -136 208 -224 308 -418
474 -283 243 -411 337 -643 470 -329 189 -493 252 -755 292 -120 18 -679 28
-823 14z m844 -355 c317 -55 686 -209 890 -370 43 -34 112 -102 152 -151 234
-284 688 -1076 844 -1471 88 -221 197 -728 241 -1109 l5 -52 -97 -6 c-446 -28
-2551 -39 -3403 -17 -571 14 -1045 30 -1145 37 l-80 5 36 187 c20 103 46 239
58 302 109 578 483 1580 726 1945 244 368 804 661 1363 715 108 11 307 3 410
-15z m-4695 -3012 c-7 -2 -19 -2 -25 0 -7 3 -2 5 12 5 14 0 19 -2 13 -5z"/>
</g>
</svg>
